<?xml version="1.0" standalone="no"?>
<!DOCTYPE svg PUBLIC "-//W3C//DTD SVG 20010904//EN"
 "http://www.w3.org/TR/2001/REC-SVG-20010904/DTD/svg10.dtd">
<svg version="1.0" xmlns="http://www.w3.org/2000/svg"
 width="2820.000000pt" height="1368.000000pt" viewBox="0 0 2820.000000 1368.000000"
 preserveAspectRatio="xMidYMid meet">

<g transform="translate(0.000000,1368.000000) scale(0.100000,-0.100000)"
fill="#000000" stroke="none">
<path d="M15600 13075 l0 -235 30 0 30 0 0 125 c0 112 2 127 20 145 24 24 39
25 66 6 17 -13 19 -30 23 -145 3 -131 3 -131 27 -131 l24 0 0 145 c0 143 0
146 -26 171 -20 21 -32 25 -62 22 -20 -3 -45 -8 -54 -12 -16 -7 -18 -1 -18 68
l0 76 -30 0 -30 0 0 -235z"/>
<path d="M15920 13075 l0 -235 24 0 c13 0 26 6 29 13 3 9 7 9 21 -2 22 -19 90
-17 120 3 35 22 49 78 45 180 -4 84 -5 89 -37 117 -34 31 -85 39 -123 19 -18
-10 -19 -7 -19 65 l0 75 -30 0 -30 0 0 -235z m155 30 c22 -21 25 -33 25 -97 0
-85 -16 -118 -57 -118 -51 0 -63 24 -63 121 0 79 2 89 22 103 31 22 45 20 73
-9z"/>
<path d="M17280 13235 c0 -68 -9 -91 -25 -65 -8 13 -68 13 -98 -1 -44 -20 -61
-65 -61 -159 0 -105 20 -148 78 -167 30 -11 43 -10 72 2 18 7 34 10 34 4 0 -5
14 -9 30 -9 l30 0 0 235 0 235 -30 0 -30 0 0 -75z m-20 -125 c17 -17 20 -33
20 -98 0 -91 -15 -122 -60 -122 -50 0 -78 68 -64 156 11 76 61 107 104 64z"/>
<path d="M14600 13065 l0 -227 90 4 c100 5 129 19 165 79 17 28 20 52 20 144
0 92 -3 116 -20 144 -36 61 -66 76 -166 79 l-89 4 0 -227z m175 151 c33 -22
48 -85 42 -177 -6 -93 -24 -125 -79 -139 -74 -21 -73 -24 -76 155 -1 87 0 166
3 173 7 18 75 11 110 -12z"/>
<path d="M15013 13156 c-17 -14 -33 -37 -35 -51 -5 -22 -2 -25 22 -25 18 0 33
8 44 25 30 45 86 28 86 -27 0 -25 -4 -28 -52 -34 -71 -10 -108 -47 -108 -109
0 -62 31 -96 88 -97 23 0 50 6 59 13 13 11 17 11 20 2 3 -7 18 -13 35 -13 l31
0 -7 46 c-3 26 -6 91 -6 144 0 123 -11 141 -91 148 -48 4 -59 1 -86 -22z m117
-193 c0 -59 -53 -96 -88 -61 -36 36 2 98 60 98 26 0 28 -3 28 -37z"/>
<path d="M15338 13165 c-15 -9 -31 -30 -38 -50 -17 -52 2 -83 80 -125 36 -19
66 -43 68 -53 9 -48 -65 -66 -94 -22 -11 17 -25 25 -45 25 -16 0 -29 -3 -29
-6 0 -23 36 -74 58 -83 91 -37 172 1 172 80 0 48 -21 71 -94 103 -29 13 -57
29 -60 35 -13 20 5 51 31 57 21 6 31 1 49 -19 23 -27 74 -38 74 -17 0 25 -33
72 -56 80 -36 14 -85 12 -116 -5z"/>
<path d="M16296 13159 c-42 -33 -56 -71 -56 -149 0 -119 38 -171 125 -172 52
-1 91 22 115 68 21 42 20 170 -3 211 -33 62 -128 84 -181 42z m117 -61 c29
-38 33 -123 10 -168 -24 -47 -71 -54 -102 -14 -17 21 -21 41 -21 96 0 60 3 72
25 94 31 31 61 28 88 -8z"/>
<path d="M16614 13146 c-41 -41 -44 -66 -8 -66 16 0 34 10 46 25 34 44 88 28
88 -26 0 -25 -4 -28 -52 -34 -59 -8 -107 -47 -109 -87 -5 -99 50 -145 131
-112 23 10 36 11 38 4 2 -5 16 -10 31 -10 l27 0 -4 133 c-2 72 -8 144 -13 158
-13 32 -47 49 -100 49 -33 0 -48 -7 -75 -34z m126 -183 c0 -64 -61 -99 -93
-52 -28 39 8 89 65 89 26 0 28 -3 28 -37z"/>
<path d="M16900 13010 l0 -170 30 0 30 0 0 123 c0 107 2 126 18 140 10 10 28
17 40 17 18 0 22 6 22 30 0 24 -4 30 -21 30 -11 0 -29 -5 -39 -10 -13 -7 -21
-7 -25 0 -3 5 -17 10 -31 10 l-24 0 0 -170z"/>
<path d="M13979 11415 c-90 -33 -99 -41 -99 -95 0 -27 5 -52 11 -56 6 -3 31 9
57 27 35 26 58 34 102 37 50 4 58 1 83 -23 26 -26 32 -49 27 -105 -3 -45 -36
-104 -155 -286 -65 -99 -120 -185 -122 -191 -4 -10 42 -13 211 -13 l216 0 0
45 0 45 -120 0 c-66 0 -120 2 -120 5 0 3 32 53 71 112 39 58 85 136 102 172
72 153 32 296 -91 331 -50 13 -129 12 -173 -5z"/>
<path d="M14758 11408 c-10 -7 -98 -125 -197 -263 l-179 -250 174 -3 174 -2 0
-90 0 -90 55 0 55 0 0 90 0 90 45 0 45 0 0 45 0 45 -45 0 -45 0 -2 218 -3 217
-30 3 c-16 2 -38 -3 -47 -10z m-31 -425 c-3 -2 -39 -3 -81 -1 l-76 3 77 109
78 108 3 -107 c1 -59 1 -109 -1 -112z"/>
<path d="M18607 11384 c-4 -4 -7 -22 -7 -41 0 -31 -2 -33 -35 -33 -49 0 -87
-38 -83 -83 l3 -32 275 0 275 0 3 32 c4 45 -34 83 -82 83 -33 0 -35 2 -38 38
-3 35 -5 37 -38 37 -33 0 -35 -2 -38 -37 l-3 -38 -79 0 -79 0 -3 38 c-3 33 -6
37 -33 40 -17 2 -34 0 -38 -4z"/>
<path d="M18487 11143 c-4 -3 -7 -82 -7 -175 0 -166 0 -169 25 -193 l24 -25
231 0 231 0 25 25 c24 24 24 25 22 197 l-3 173 -271 3 c-149 1 -273 -1 -277
-5z m412 -97 c13 -14 22 -28 20 -33 -2 -4 -48 -51 -102 -103 l-97 -94 -60 59
c-33 33 -60 64 -60 69 0 13 41 56 54 56 5 0 24 -13 41 -30 l31 -30 64 65 c35
36 69 65 75 65 7 0 22 -11 34 -24z"/>
<path d="M1382 10984 c-27 -19 -29 -65 -4 -86 9 -8 36 -23 60 -33 33 -14 42
-23 40 -39 -3 -19 -9 -21 -61 -20 -48 1 -57 -1 -55 -15 2 -11 16 -17 47 -19
59 -4 88 4 102 29 20 39 3 68 -59 97 -59 28 -70 47 -40 66 12 7 29 7 58 0 36
-10 40 -9 40 6 0 10 -7 21 -16 24 -29 11 -89 6 -112 -10z"/>
<path d="M1570 10950 c0 -11 -4 -20 -10 -20 -5 0 -10 -7 -10 -15 0 -8 5 -15
10 -15 6 0 10 -21 10 -46 0 -58 14 -84 45 -84 30 0 41 16 15 23 -17 4 -20 14
-20 55 0 41 3 51 20 55 11 3 20 10 20 16 0 6 -9 11 -20 11 -13 0 -20 7 -20 20
0 13 -7 20 -20 20 -13 0 -20 -7 -20 -20z"/>
<path d="M1870 10950 c0 -11 -4 -20 -10 -20 -5 0 -10 -7 -10 -15 0 -8 5 -15
10 -15 6 0 10 -24 10 -53 0 -58 12 -77 47 -77 28 0 30 11 3 28 -15 9 -20 23
-20 57 0 38 3 45 20 45 11 0 20 7 20 15 0 8 -9 15 -20 15 -13 0 -20 7 -20 20
0 11 -7 20 -15 20 -8 0 -15 -9 -15 -20z"/>
<path d="M1703 10923 c-28 -11 -12 -30 23 -29 22 1 39 -4 41 -11 3 -8 -4 -13
-19 -13 -34 0 -68 -27 -68 -54 0 -35 19 -44 83 -44 53 1 70 9 47 23 -5 3 -10
30 -10 59 0 28 -5 57 -12 64 -12 12 -62 15 -85 5z m67 -93 c0 -21 -27 -40 -47
-33 -19 7 -16 30 5 42 27 16 42 13 42 -9z"/>
<path d="M1990 10915 c-19 -23 -4 -60 32 -76 50 -22 49 -42 -1 -37 -33 3 -41
1 -39 -12 4 -19 74 -26 94 -9 27 22 13 62 -28 82 -21 9 -38 21 -38 26 0 13 25
20 49 14 15 -4 21 -1 21 11 0 21 -72 22 -90 1z"/>
<path d="M923 9891 c-47 -75 -49 -81 -29 -81 17 0 99 128 91 141 -11 17 -20 8
-62 -60z"/>
<path d="M7360 9895 c0 -44 0 -44 -29 -39 -23 5 -35 1 -55 -19 -23 -23 -26
-35 -26 -92 0 -86 17 -105 95 -103 l55 2 0 148 c0 141 -1 148 -20 148 -17 0
-20 -7 -20 -45z m-2 -147 c3 -60 1 -67 -19 -73 -33 -11 -51 15 -51 74 1 63 7
73 40 69 26 -3 27 -6 30 -70z"/>
<path d="M8810 9790 c0 -143 1 -150 20 -150 19 0 20 7 20 150 0 143 -1 150
-20 150 -19 0 -20 -7 -20 -150z"/>
<path d="M16200 9790 c0 -143 1 -150 20 -150 18 0 20 7 20 78 0 80 9 102 41
102 23 0 29 -20 29 -106 0 -67 2 -74 20 -74 18 0 20 7 20 69 0 38 -3 83 -6
101 -9 40 -43 58 -79 42 -25 -12 -25 -11 -25 38 0 43 -3 50 -20 50 -19 0 -20
-7 -20 -150z"/>
<path d="M16730 9896 c0 -45 0 -45 -32 -40 -20 3 -40 -1 -51 -10 -37 -29 -43
-132 -11 -183 12 -19 22 -22 74 -22 l60 1 0 149 c0 142 -1 149 -20 149 -17 0
-20 -7 -20 -44z m-5 -145 c0 -51 -4 -66 -18 -75 -15 -9 -22 -7 -38 13 -21 26
-24 65 -9 106 8 21 16 26 38 23 26 -3 27 -5 27 -67z"/>
<path d="M17060 9790 c0 -127 2 -150 15 -150 13 0 15 23 15 150 0 127 -2 150
-15 150 -13 0 -15 -23 -15 -150z"/>
<path d="M17480 9895 c0 -44 0 -44 -29 -39 -23 5 -35 1 -55 -19 -23 -23 -26
-35 -26 -92 0 -86 17 -105 95 -103 l55 2 0 148 c0 141 -1 148 -20 148 -17 0
-20 -7 -20 -45z m-2 -147 c3 -60 1 -67 -19 -73 -33 -11 -51 15 -51 74 1 63 7
73 40 69 26 -3 27 -6 30 -70z"/>
<path d="M21520 9791 l0 -148 58 -1 c66 -1 88 14 98 64 18 97 -25 170 -87 147
l-29 -11 0 49 c0 42 -3 49 -20 49 -19 0 -20 -7 -20 -149z m110 10 c15 -30 12
-97 -6 -115 -18 -19 -20 -19 -45 -6 -15 8 -19 21 -19 60 0 26 3 55 6 64 9 22
51 20 64 -3z"/>
<path d="M22720 9790 c0 -127 2 -150 15 -150 13 0 15 23 15 150 0 127 -2 150
-15 150 -13 0 -15 -23 -15 -150z"/>
<path d="M23470 9890 c0 -46 -1 -49 -18 -39 -56 35 -109 -33 -98 -125 8 -70
26 -86 97 -85 l59 1 0 149 c0 142 -1 149 -20 149 -17 0 -20 -7 -20 -50z m-2
-135 c3 -47 0 -62 -14 -72 -23 -17 -29 -16 -48 3 -18 18 -21 85 -5 115 7 14
19 19 37 17 26 -3 27 -6 30 -63z"/>
<path d="M6600 9785 c0 -138 1 -145 20 -145 18 0 20 7 20 55 l0 55 35 0 c46 0
80 17 94 47 22 48 6 103 -36 122 -13 6 -48 11 -78 11 l-55 0 0 -145z m132 80
c8 -19 8 -31 0 -50 -10 -21 -19 -25 -52 -25 l-40 0 0 50 0 50 40 0 c33 0 42
-4 52 -25z"/>
<path d="M7475 9920 c-8 -14 3 -30 21 -30 8 0 14 9 14 20 0 21 -24 28 -35 10z"/>
<path d="M8155 9789 c-25 -77 -45 -143 -45 -145 0 -2 9 -4 19 -4 13 0 23 11
31 35 11 34 13 35 60 35 48 0 49 -1 56 -35 5 -28 11 -35 29 -35 22 0 22 1 -23
145 -61 192 -66 192 -127 4z m91 -13 c6 -24 4 -26 -29 -26 l-34 0 15 57 16 56
13 -30 c6 -17 15 -42 19 -57z"/>
<path d="M8930 9910 c0 -15 5 -20 18 -18 9 2 17 10 17 18 0 8 -8 16 -17 18
-13 2 -18 -3 -18 -18z"/>
<path d="M9595 9920 c-8 -14 3 -30 21 -30 8 0 14 9 14 20 0 21 -24 28 -35 10z"/>
<path d="M13850 9785 c0 -138 1 -145 20 -145 19 0 20 7 20 145 0 138 -1 145
-20 145 -19 0 -20 -7 -20 -145z"/>
<path d="M14860 9910 c0 -13 7 -20 20 -20 13 0 20 7 20 20 0 13 -7 20 -20 20
-13 0 -20 -7 -20 -20z"/>
<path d="M15792 9907 c-23 -24 -28 -66 -13 -96 5 -9 32 -28 60 -41 28 -13 53
-31 56 -40 14 -45 -39 -77 -75 -45 -11 10 -20 24 -20 32 0 7 -9 13 -20 13 -24
0 -25 -11 -5 -49 16 -32 33 -41 79 -41 42 0 73 23 81 60 9 42 -14 74 -75 105
-39 20 -50 30 -50 50 0 50 69 54 85 5 6 -20 45 -29 45 -10 0 20 -29 68 -45 74
-36 13 -82 6 -103 -17z"/>
<path d="M21190 9816 c0 -91 -3 -118 -16 -130 -23 -24 -44 -17 -57 17 -8 20
-47 23 -47 3 0 -7 9 -25 21 -40 16 -20 29 -26 59 -26 30 0 43 6 59 26 19 24
21 40 21 145 0 112 -1 119 -20 119 -19 0 -20 -7 -20 -114z"/>
<path d="M22060 9785 l0 -145 39 0 c97 0 131 38 131 145 0 107 -34 145 -131
145 l-39 0 0 -145z m114 83 c11 -15 16 -45 16 -89 0 -72 -11 -91 -62 -103
l-28 -6 0 110 0 110 29 0 c20 0 35 -8 45 -22z"/>
<path d="M22830 9910 c0 -15 5 -20 18 -18 9 2 17 10 17 18 0 8 -8 16 -17 18
-13 2 -18 -3 -18 -18z"/>
<path d="M9460 9885 c0 -16 -6 -25 -15 -25 -8 0 -15 -9 -15 -20 0 -11 7 -20
15 -20 12 0 15 -15 15 -71 0 -82 11 -109 45 -109 27 0 34 24 10 34 -11 4 -15
22 -15 76 0 56 3 70 15 70 8 0 15 9 15 20 0 11 -7 20 -15 20 -9 0 -15 9 -15
25 0 18 -5 25 -20 25 -15 0 -20 -7 -20 -25z"/>
<path d="M14187 9903 c-4 -3 -7 -13 -7 -21 0 -8 -8 -21 -17 -28 -17 -13 -17
-15 0 -28 12 -10 17 -29 18 -72 1 -86 10 -108 42 -112 30 -4 35 11 12 34 -10
11 -15 36 -15 80 0 50 3 64 15 64 8 0 15 9 15 20 0 11 -7 20 -15 20 -9 0 -15
9 -15 25 0 24 -18 34 -33 18z"/>
<path d="M1580 9775 c0 -92 3 -117 15 -121 22 -9 41 7 21 18 -13 7 -16 27 -16
113 0 63 -4 105 -10 105 -6 0 -10 -45 -10 -115z"/>
<path d="M1672 9779 c3 -92 6 -114 20 -123 21 -13 36 0 20 16 -8 8 -12 49 -12
115 0 86 -3 103 -15 103 -13 0 -15 -17 -13 -111z"/>
<path d="M2150 9771 l0 -119 56 2 c46 1 60 6 75 25 25 31 24 72 -3 106 -18 23
-26 26 -60 22 l-38 -5 0 44 c0 32 -4 44 -15 44 -12 0 -15 -20 -15 -119z m115
-41 c0 -44 -31 -66 -63 -44 -49 34 -7 123 43 90 13 -9 20 -24 20 -46z"/>
<path d="M760 9815 c-17 -30 -35 -55 -40 -55 -4 0 -20 14 -34 30 l-25 30 -34
-53 c-53 -83 -59 -95 -46 -103 12 -7 15 -4 56 65 l27 44 31 -37 31 -37 34 60
c30 51 38 59 58 54 12 -3 22 -2 22 1 0 12 -32 56 -40 56 -5 0 -23 -25 -40 -55z"/>
<path d="M1406 9828 c-9 -24 -27 -73 -40 -110 -21 -57 -23 -68 -10 -68 9 0 21
14 27 30 10 27 16 30 55 30 39 0 45 -3 55 -30 6 -16 17 -30 24 -30 18 0 18 1
-23 117 -42 119 -62 132 -88 61z m48 -32 c3 -13 9 -31 12 -40 5 -13 -1 -16
-25 -16 -34 0 -36 3 -20 49 13 37 25 40 33 7z"/>
<path d="M1860 9750 c0 -98 -3 -122 -15 -126 -21 -8 -19 -24 3 -24 36 0 42 20
42 147 0 103 -2 123 -15 123 -13 0 -15 -20 -15 -120z"/>
<path d="M6855 9835 c-34 -33 -36 -128 -4 -169 24 -30 82 -36 115 -12 30 22 7
39 -33 24 -38 -14 -63 1 -63 38 0 22 4 24 55 24 l55 0 0 35 c0 43 -37 85 -75
85 -14 0 -37 -11 -50 -25z m83 -42 c3 -20 -1 -23 -32 -23 -36 0 -41 5 -30 35
10 25 58 16 62 -12z"/>
<path d="M7047 9853 c-4 -3 -7 -53 -7 -110 0 -96 1 -103 20 -103 18 0 20 7 20
78 0 80 9 102 41 102 23 0 29 -20 29 -106 0 -67 2 -74 20 -74 18 0 20 7 20 69
0 38 -3 83 -6 101 -8 40 -43 58 -79 42 -15 -7 -27 -8 -30 -2 -7 12 -19 13 -28
3z"/>
<path d="M7477 9853 c-4 -3 -7 -53 -7 -110 0 -96 1 -103 20 -103 19 0 20 7 20
110 0 85 -3 110 -13 110 -8 0 -17 -3 -20 -7z"/>
<path d="M7587 9853 c-4 -3 -7 -53 -7 -110 0 -96 1 -103 20 -103 18 0 20 7 20
73 0 80 14 112 46 105 17 -3 19 -13 22 -91 3 -79 5 -87 22 -87 18 0 20 7 20
88 0 118 -28 155 -91 122 -13 -7 -19 -7 -19 0 0 11 -23 14 -33 3z"/>
<path d="M7821 9841 c-25 -25 -35 -72 -27 -126 9 -55 34 -79 81 -73 28 3 35 1
35 -13 0 -30 -28 -44 -63 -31 -36 13 -46 8 -31 -16 7 -10 27 -18 51 -20 34 -3
44 1 62 24 19 24 21 40 21 145 0 118 -7 142 -35 119 -9 -7 -15 -8 -20 0 -10
16 -53 12 -74 -9z m87 -86 c3 -47 0 -62 -14 -72 -23 -17 -29 -16 -48 3 -18 18
-21 85 -5 115 7 14 19 19 37 17 26 -3 27 -6 30 -63z"/>
<path d="M8380 9710 c0 -127 2 -150 15 -150 11 0 15 12 15 44 l0 44 44 -5 c58
-7 76 17 76 103 0 92 -42 135 -101 104 -13 -7 -19 -7 -19 0 0 5 -7 10 -15 10
-13 0 -15 -23 -15 -150z m104 94 c12 -31 6 -111 -9 -124 -44 -37 -83 42 -55
114 11 30 54 36 64 10z"/>
<path d="M8597 9853 c-4 -3 -7 -71 -7 -150 0 -136 1 -143 20 -143 17 0 20 7
20 45 0 43 1 45 25 39 65 -16 95 20 95 112 0 45 -4 59 -25 79 -26 27 -46 31
-76 15 -13 -7 -19 -7 -19 0 0 11 -23 14 -33 3z m101 -45 c15 -15 16 -92 2
-119 -6 -10 -19 -19 -30 -19 -26 0 -40 29 -40 82 0 46 13 68 40 68 9 0 21 -5
28 -12z"/>
<path d="M8930 9750 c0 -91 3 -110 15 -110 12 0 15 19 15 110 0 91 -3 110 -15
110 -12 0 -15 -19 -15 -110z"/>
<path d="M9072 9850 c-45 -19 -59 -136 -21 -184 37 -47 129 -28 129 27 0 23
-27 21 -40 -3 -12 -22 -40 -26 -58 -8 -7 7 -12 35 -12 63 0 28 5 56 12 63 18
18 46 14 60 -8 7 -11 18 -20 25 -20 20 0 15 38 -7 60 -21 21 -51 24 -88 10z"/>
<path d="M9265 9835 c-14 -13 -25 -29 -25 -35 0 -16 37 -12 44 5 8 22 53 19
59 -4 6 -25 0 -31 -35 -31 -36 0 -68 -32 -68 -69 0 -45 22 -60 88 -59 l58 1
-4 91 c-3 76 -7 94 -24 109 -28 24 -65 21 -93 -8z m85 -109 c0 -24 -36 -60
-53 -53 -20 7 -23 53 -4 60 25 11 57 7 57 -7z"/>
<path d="M9597 9853 c-4 -3 -7 -53 -7 -110 0 -96 1 -103 20 -103 19 0 20 7 20
110 0 85 -3 110 -13 110 -8 0 -17 -3 -20 -7z"/>
<path d="M9731 9843 c-26 -21 -42 -84 -34 -127 14 -75 99 -104 142 -50 24 30
29 106 10 147 -20 45 -81 60 -118 30z m77 -35 c15 -15 16 -92 2 -119 -12 -22
-43 -25 -59 -5 -18 21 -24 77 -12 109 11 29 47 37 69 15z"/>
<path d="M9927 9853 c-4 -3 -7 -53 -7 -110 0 -96 1 -103 20 -103 18 0 20 7 20
78 0 80 9 102 41 102 23 0 29 -20 29 -106 0 -67 2 -74 20 -74 18 0 20 7 20 69
0 38 -3 83 -6 101 -8 40 -43 58 -79 42 -15 -7 -27 -8 -30 -2 -7 12 -19 13 -28
3z"/>
<path d="M10162 9844 c-27 -19 -29 -64 -4 -86 9 -9 32 -23 50 -32 35 -18 37
-33 8 -50 -14 -9 -21 -6 -36 12 -21 25 -50 29 -50 7 0 -27 38 -55 75 -55 36 0
75 28 75 53 0 23 -32 59 -66 73 -41 17 -48 54 -10 54 13 0 26 -7 30 -15 8 -22
36 -18 36 4 0 23 -36 51 -65 51 -11 0 -31 -7 -43 -16z"/>
<path d="M13967 9853 c-4 -3 -7 -53 -7 -110 0 -96 1 -103 20 -103 18 0 20 7
20 78 0 80 9 102 41 102 23 0 29 -20 29 -106 0 -67 2 -74 20 -74 18 0 20 7 20
69 0 38 -3 83 -6 101 -8 40 -43 58 -79 42 -15 -7 -27 -8 -30 -2 -7 12 -19 13
-28 3z"/>
<path d="M14341 9843 c-44 -36 -46 -160 -5 -190 38 -28 147 -3 119 26 -8 8
-20 7 -43 -1 -36 -14 -57 -1 -64 37 -3 18 3 20 55 23 l57 3 0 35 c0 67 -70
106 -119 67z m73 -39 c11 -29 6 -34 -29 -34 -27 0 -35 4 -35 18 0 10 3 22 7
25 12 13 51 7 57 -9z"/>
<path d="M14525 9852 c-3 -3 -5 -52 -5 -109 0 -96 1 -103 20 -103 17 0 19 8
22 83 3 74 5 83 26 92 12 5 22 17 22 26 0 12 -10 16 -40 16 -22 0 -42 -2 -45
-5z"/>
<path d="M14650 9854 c0 -3 14 -53 32 -110 40 -132 52 -133 90 -9 32 108 34
128 11 123 -12 -2 -22 -23 -33 -65 -8 -34 -18 -64 -21 -67 -3 -3 -13 26 -23
64 -15 55 -22 70 -37 70 -11 0 -19 -3 -19 -6z"/>
<path d="M14860 9751 c0 -105 1 -111 20 -111 20 0 21 5 18 107 -3 93 -5 108
-20 111 -16 3 -18 -7 -18 -107z"/>
<path d="M14995 9837 c-52 -45 -40 -178 18 -192 38 -10 79 -2 91 17 14 23 0
35 -24 20 -28 -17 -44 -15 -65 8 -30 33 -13 50 51 50 l57 0 -6 42 c-10 73 -70
100 -122 55z m79 -33 c11 -29 6 -34 -34 -34 -43 0 -45 2 -30 31 13 23 55 25
64 3z"/>
<path d="M15166 9852 c-2 -4 7 -54 21 -110 30 -122 49 -132 73 -40 18 69 26
77 34 41 23 -93 28 -104 43 -101 12 2 24 30 40 93 27 110 28 128 6 123 -11 -2
-21 -24 -33 -73 l-16 -70 -18 73 c-23 91 -43 94 -65 9 -8 -31 -18 -57 -22 -57
-3 0 -12 27 -18 60 -8 39 -17 60 -26 60 -8 0 -16 -4 -19 -8z"/>
<path d="M15482 9844 c-27 -19 -29 -64 -4 -86 9 -9 32 -23 50 -32 35 -18 37
-33 8 -50 -14 -9 -21 -6 -36 12 -21 25 -50 29 -50 7 0 -27 38 -55 75 -55 36 0
75 28 75 53 0 23 -32 59 -66 73 -41 17 -48 54 -10 54 13 0 26 -7 30 -15 8 -22
36 -18 36 4 0 23 -36 51 -65 51 -11 0 -31 -7 -43 -16z"/>
<path d="M16032 9850 c-45 -19 -59 -136 -21 -184 37 -47 129 -28 129 27 0 23
-27 21 -40 -3 -12 -22 -40 -26 -58 -8 -7 7 -12 35 -12 63 0 28 5 56 12 63 18
18 46 14 60 -8 7 -11 18 -20 25 -20 20 0 15 38 -7 60 -21 21 -51 24 -88 10z"/>
<path d="M16435 9835 c-34 -33 -36 -128 -4 -169 24 -30 82 -36 115 -12 30 22
7 39 -33 24 -38 -14 -63 1 -63 38 0 22 4 24 55 24 l55 0 0 35 c0 43 -37 85
-75 85 -14 0 -37 -11 -50 -25z m83 -42 c3 -20 -1 -23 -32 -23 -36 0 -41 5 -30
35 10 25 58 16 62 -12z"/>
<path d="M16847 9854 c-4 -4 -7 -44 -7 -88 0 -111 11 -126 91 -125 l60 1 -3
106 c-3 92 -5 107 -20 110 -16 3 -18 -6 -18 -77 0 -59 -4 -84 -16 -95 -35 -36
-52 -9 -56 89 -3 72 -13 97 -31 79z"/>
<path d="M17199 9847 c-27 -20 -39 -53 -39 -105 0 -70 27 -102 85 -102 47 0
77 22 57 42 -9 9 -15 9 -24 0 -27 -27 -78 -1 -78 39 0 17 7 19 61 19 59 0 61
1 55 23 -3 12 -6 30 -6 40 0 44 -73 73 -111 44z m71 -46 c15 -29 13 -31 -30
-31 -41 0 -52 14 -28 38 18 18 46 14 58 -7z"/>
<path d="M21331 9843 c-26 -21 -42 -84 -34 -127 14 -75 99 -104 142 -50 24 30
29 106 10 147 -20 45 -81 60 -118 30z m77 -35 c15 -15 16 -92 2 -119 -12 -22
-43 -25 -59 -5 -18 21 -24 77 -12 109 11 29 47 37 69 15z"/>
<path d="M21762 9844 c-26 -18 -30 -65 -7 -84 8 -7 30 -20 48 -29 20 -10 32
-23 32 -36 0 -28 -40 -32 -57 -6 -11 19 -48 30 -48 15 0 -11 23 -49 34 -56 22
-15 83 -8 99 10 34 37 17 80 -42 107 -48 21 -57 55 -16 55 14 0 28 -7 31 -15
6 -16 44 -21 44 -6 0 4 -9 20 -21 35 -24 30 -63 34 -97 10z"/>
<path d="M22331 9843 c-44 -36 -46 -160 -5 -190 38 -28 147 -3 119 26 -8 8
-20 7 -43 -1 -36 -14 -57 -1 -64 37 -3 18 3 20 55 23 l57 3 0 35 c0 67 -70
106 -119 67z m73 -39 c11 -29 6 -34 -29 -34 -27 0 -35 4 -35 18 0 10 3 22 7
25 12 13 51 7 57 -9z"/>
<path d="M22543 9848 c-45 -22 -55 -127 -19 -183 24 -36 86 -35 115 1 12 15
21 31 21 35 0 17 -35 9 -48 -11 -16 -25 -48 -26 -62 -1 -5 11 -10 36 -10 56 0
20 5 45 10 56 14 26 57 25 65 -1 4 -11 15 -20 26 -20 16 0 19 4 14 23 -14 49
-63 68 -112 45z"/>
<path d="M22830 9750 c0 -91 3 -110 15 -110 12 0 15 19 15 110 0 91 -3 110
-15 110 -12 0 -15 -19 -15 -110z"/>
<path d="M22940 9750 c0 -91 3 -110 15 -110 12 0 15 14 15 64 0 84 13 118 43
114 21 -3 22 -8 25 -90 3 -80 5 -88 22 -88 18 0 20 7 20 93 0 78 -3 97 -18
110 -21 19 -45 21 -73 7 -13 -7 -19 -7 -19 0 0 5 -7 10 -15 10 -12 0 -15 -19
-15 -110z"/>
<path d="M23181 9843 c-44 -36 -46 -160 -5 -190 38 -28 147 -3 119 26 -8 8
-20 7 -43 -1 -36 -14 -57 -1 -64 37 -3 18 3 20 55 23 l57 3 0 35 c0 67 -70
106 -119 67z m73 -39 c11 -29 6 -34 -29 -34 -27 0 -35 4 -35 18 0 10 3 22 7
25 12 13 51 7 57 -9z"/>
<path d="M1970 9790 c-13 -13 -20 -33 -20 -60 0 -49 27 -80 70 -80 41 0 80 39
80 80 0 66 -85 105 -130 60z m78 -16 c46 -32 9 -117 -42 -98 -37 14 -40 93 -4
107 20 8 22 8 46 -9z"/>
<path d="M2356 9788 c-19 -27 -7 -52 34 -66 32 -12 40 -36 15 -46 -8 -3 -26
-1 -40 4 -19 7 -25 6 -25 -4 0 -17 22 -26 60 -26 60 0 68 64 10 91 -45 21 -46
44 -2 44 19 0 32 5 32 12 0 23 -67 16 -84 -9z"/>
<path d="M805 9745 c-37 -36 -34 -86 6 -119 32 -27 54 -32 79 -16 11 7 23 1
47 -22 26 -25 36 -29 45 -20 9 9 5 19 -20 45 -23 24 -29 36 -22 47 16 25 11
47 -16 79 -33 40 -83 43 -119 6z m100 -29 c33 -49 -22 -103 -72 -70 -25 16
-31 62 -11 82 21 21 66 14 83 -12z"/>
<path d="M13185 8853 c3 -16 15 -37 26 -48 19 -20 33 -20 3429 -20 3396 0
3410 0 3429 20 11 11 23 32 26 48 l7 27 -3462 0 -3462 0 7 -27z"/>
<path d="M590 8840 c-18 -18 -20 -33 -20 -190 0 -225 -15 -210 210 -210 225 0
210 -15 210 210 0 225 15 210 -210 210 -157 0 -172 -2 -190 -20z m82 -45 l52
-35 21 20 c12 11 27 20 35 20 8 0 23 -9 35 -20 l21 -20 52 35 c28 19 56 35 62
35 6 0 10 -62 10 -180 l0 -180 -180 0 -180 0 0 180 c0 118 4 180 10 180 6 0
34 -16 62 -35z m98 26 c0 -5 -11 -16 -25 -25 -24 -16 -27 -16 -55 4 -17 12
-30 23 -30 26 0 2 25 4 55 4 30 0 55 -4 55 -9z m130 5 c0 -3 -13 -14 -30 -26
-28 -20 -31 -20 -55 -4 -38 25 -30 34 30 34 30 0 55 -2 55 -4z"/>
<path d="M650 8695 c0 -10 10 -15 30 -15 20 0 30 5 30 15 0 10 -10 15 -30 15
-20 0 -30 -5 -30 -15z"/>
<path d="M740 8695 c0 -12 16 -15 85 -15 69 0 85 3 85 15 0 12 -16 15 -85 15
-69 0 -85 -3 -85 -15z"/>
<path d="M650 8625 c0 -10 10 -15 30 -15 20 0 30 5 30 15 0 10 -10 15 -30 15
-20 0 -30 -5 -30 -15z"/>
<path d="M740 8625 c0 -12 16 -15 85 -15 69 0 85 3 85 15 0 12 -16 15 -85 15
-69 0 -85 -3 -85 -15z"/>
<path d="M830 8555 c0 -11 11 -15 40 -15 29 0 40 4 40 15 0 11 -11 15 -40 15
-29 0 -40 -4 -40 -15z"/>
<path d="M1680 8725 c0 -43 -1 -45 -24 -39 -38 9 -67 -5 -82 -42 -12 -29 -12
-39 0 -69 16 -38 57 -56 87 -37 12 8 20 8 24 2 18 -29 25 1 25 110 0 100 -2
120 -15 120 -11 0 -15 -12 -15 -45z m-15 -71 c10 -11 15 -29 13 -53 -3 -32 -7
-36 -33 -39 -51 -6 -73 50 -35 88 24 24 34 25 55 4z"/>
<path d="M1880 8725 c0 -43 -1 -45 -24 -39 -38 9 -67 -5 -82 -42 -12 -29 -12
-39 0 -69 16 -38 57 -56 87 -37 12 8 20 8 24 2 18 -29 25 1 25 110 0 100 -2
120 -15 120 -11 0 -15 -12 -15 -45z m-15 -71 c10 -11 15 -29 13 -53 -3 -32 -7
-36 -33 -39 -51 -6 -73 50 -35 88 24 24 34 25 55 4z"/>
<path d="M2360 8653 l0 -118 50 -2 c42 -2 52 1 70 24 26 33 26 73 -2 108 -18
23 -26 26 -60 22 l-38 -5 0 44 c0 24 -4 44 -10 44 -6 0 -10 -46 -10 -117z
m106 -18 c9 -34 2 -56 -23 -72 -19 -13 -24 -12 -42 6 -26 26 -27 55 -2 80 25
25 59 17 67 -14z"/>
<path d="M1406 8708 c-9 -24 -27 -73 -40 -110 -21 -57 -23 -68 -10 -68 9 0 21
14 27 30 10 27 16 30 55 30 39 0 45 -3 55 -30 6 -16 17 -30 24 -30 18 0 18 1
-23 117 -42 119 -62 132 -88 61z m48 -32 c3 -13 9 -31 12 -40 5 -13 -1 -16
-25 -16 -34 0 -36 3 -20 49 13 37 25 40 33 7z"/>
<path d="M2070 8636 c0 -89 -3 -116 -15 -126 -22 -18 -18 -32 8 -28 21 3 22 7
25 136 2 85 -1 132 -8 132 -6 0 -10 -42 -10 -114z"/>
<path d="M2171 8664 c-28 -36 -27 -79 4 -109 50 -51 125 -16 125 56 0 72 -86
107 -129 53z m80 -4 c19 -11 27 -63 11 -86 -25 -36 -82 -12 -82 36 0 28 22 60
41 60 6 0 19 -5 30 -10z"/>
<path d="M560 7750 c-19 -19 -20 -33 -20 -220 0 -187 1 -201 20 -220 19 -19
33 -20 205 -20 172 0 186 1 205 20 19 19 20 33 20 220 0 187 -1 201 -20 220
-19 19 -33 20 -205 20 -172 0 -186 -1 -205 -20z m370 -220 l0 -180 -165 0
-165 0 0 180 0 180 165 0 165 0 0 -180z"/>
<path d="M710 7660 c-16 -16 -18 -25 -10 -40 6 -11 16 -20 23 -21 7 0 -1 -5
-18 -11 -32 -12 -45 -25 -45 -45 0 -9 22 -13 75 -13 53 0 75 4 75 13 0 21 -14
35 -42 42 -26 7 -26 7 -7 26 15 15 17 24 10 38 -16 29 -39 33 -61 11z"/>
<path d="M660 7485 c0 -12 18 -15 105 -15 87 0 105 3 105 15 0 12 -18 15 -105
15 -87 0 -105 -3 -105 -15z"/>
<path d="M660 7425 c0 -12 18 -15 105 -15 87 0 105 3 105 15 0 12 -18 15 -105
15 -87 0 -105 -3 -105 -15z"/>
<path d="M1890 7624 c-6 -14 -10 -31 -10 -39 0 -7 -6 -16 -12 -19 -10 -5 -10
-7 0 -12 8 -4 12 -29 12 -75 0 -55 3 -69 15 -69 12 0 15 14 15 70 0 63 2 70
20 70 11 0 20 5 20 10 0 6 -9 10 -20 10 -15 0 -20 7 -20 24 0 16 7 27 20 31
28 9 25 25 -5 25 -18 0 -28 -7 -35 -26z"/>
<path d="M2090 7535 c0 -92 3 -117 15 -121 22 -9 41 7 21 18 -13 7 -16 27 -16
113 0 63 -4 105 -10 105 -6 0 -10 -45 -10 -115z"/>
<path d="M1370 7520 c0 -91 3 -110 15 -110 11 0 15 11 15 39 0 37 1 39 40 44
56 7 70 22 70 73 0 52 -16 64 -89 64 l-51 0 0 -110z m99 76 c7 -8 11 -27 9
-43 -3 -24 -8 -28 -40 -31 l-38 -3 0 45 c0 44 1 46 29 46 16 0 34 -6 40 -14z"/>
<path d="M2000 7620 c0 -5 5 -10 10 -10 6 0 10 5 10 10 0 6 -4 10 -10 10 -5 0
-10 -4 -10 -10z"/>
<path d="M1560 7490 c0 -64 3 -80 15 -80 12 0 15 13 15 60 0 55 2 60 25 66 14
3 25 12 25 20 0 17 -22 18 -39 2 -11 -10 -14 -10 -18 0 -13 34 -23 4 -23 -68z"/>
<path d="M1691 7544 c-28 -36 -27 -79 4 -109 50 -51 125 -16 125 56 0 72 -86
107 -129 53z m80 -4 c19 -11 27 -63 11 -86 -25 -36 -82 -12 -82 36 0 28 22 60
41 60 6 0 19 -5 30 -10z"/>
<path d="M2000 7490 c0 -47 4 -80 10 -80 6 0 10 33 10 80 0 47 -4 80 -10 80
-6 0 -10 -33 -10 -80z"/>
<path d="M2195 7545 c-51 -50 -15 -135 57 -135 18 0 40 5 48 10 17 11 17 11
-34 14 -36 3 -66 24 -66 48 0 4 25 8 55 8 52 0 55 1 55 24 0 29 -33 56 -68 56
-12 0 -34 -11 -47 -25z m73 -7 c20 -20 14 -28 -23 -28 -19 0 -35 4 -35 8 0 12
22 32 35 32 6 0 16 -5 23 -12z"/>
<path d="M15490 7190 l0 -190 25 0 25 0 0 105 c0 102 1 106 25 117 45 20 55
-1 55 -118 l0 -104 25 0 25 0 0 105 c0 58 -5 115 -12 130 -13 29 -45 40 -88
31 l-30 -5 0 59 c0 57 -1 60 -25 60 l-25 0 0 -190z"/>
<path d="M15750 7190 l0 -190 25 0 25 0 0 190 0 190 -25 0 -25 0 0 -190z"/>
<path d="M17090 7190 l0 -190 25 0 25 0 0 190 0 190 -25 0 -25 0 0 -190z"/>
<path d="M18052 7361 c-19 -11 -11 -45 11 -49 9 -2 20 4 23 13 9 21 -16 47
-34 36z"/>
<path d="M14390 7180 l0 -180 25 0 25 0 1 123 1 122 41 -122 c35 -104 45 -123
62 -123 17 0 27 19 62 123 l41 122 1 -122 1 -123 25 0 25 0 0 180 0 180 -32 0
-33 0 -44 -138 -44 -137 -46 138 -45 137 -33 0 -33 0 0 -180z"/>
<path d="M16337 7353 c-2 -4 -26 -73 -51 -153 -26 -80 -51 -157 -56 -172 -8
-26 -7 -28 18 -28 24 0 29 6 40 45 l12 45 60 0 60 0 11 -45 c10 -38 15 -45 35
-45 13 0 24 6 24 13 0 6 -24 86 -53 177 -45 140 -56 165 -74 168 -12 2 -23 0
-26 -5z m42 -130 c7 -27 15 -56 18 -65 5 -15 -1 -18 -36 -18 -22 0 -41 2 -41
5 0 17 34 125 40 125 3 0 12 -21 19 -47z"/>
<path d="M17226 7351 c-10 -16 5 -41 24 -41 19 0 34 25 24 41 -3 5 -14 9 -24
9 -10 0 -21 -4 -24 -9z"/>
<path d="M15330 7300 c0 -23 -4 -30 -20 -30 -13 0 -20 -7 -20 -20 0 -13 7 -20
20 -20 19 0 20 -7 20 -93 0 -107 13 -137 61 -137 22 0 29 5 29 19 0 10 -9 21
-20 24 -18 5 -20 14 -20 96 0 84 1 91 20 91 13 0 20 7 20 20 0 13 -7 20 -20
20 -16 0 -20 7 -20 30 0 25 -4 30 -25 30 -21 0 -25 -5 -25 -30z"/>
<path d="M17880 7300 c0 -23 -4 -30 -20 -30 -13 0 -20 -7 -20 -20 0 -13 7 -20
20 -20 19 0 20 -7 20 -96 0 -115 8 -134 55 -134 28 0 35 4 35 19 0 10 -9 21
-20 24 -18 5 -20 14 -20 96 0 84 1 91 20 91 13 0 20 7 20 20 0 13 -7 20 -20
20 -16 0 -20 7 -20 30 0 25 -4 30 -25 30 -21 0 -25 -5 -25 -30z"/>
<path d="M14809 7239 c-27 -29 -29 -37 -29 -106 0 -69 2 -77 29 -104 39 -39
106 -41 141 -5 45 49 45 173 -1 222 -35 37 -102 34 -140 -7z m107 -30 c13 -14
18 -35 18 -72 0 -64 -17 -97 -48 -97 -38 0 -59 33 -59 95 0 84 45 122 89 74z"/>
<path d="M15060 7135 l0 -135 25 0 25 0 0 105 c0 102 1 106 25 117 45 20 55
-1 55 -118 l0 -104 25 0 25 0 0 106 c0 100 -8 139 -34 156 -16 11 -64 10 -87
-2 -13 -7 -19 -7 -19 0 0 5 -9 10 -20 10 -19 0 -20 -7 -20 -135z"/>
<path d="M15860 7263 c0 -5 16 -60 35 -123 19 -63 35 -127 35 -142 0 -29 -23
-58 -46 -58 -21 0 -14 -44 7 -48 9 -2 28 7 43 20 20 18 36 58 71 179 25 86 45
161 45 168 0 6 -11 11 -24 11 -21 0 -26 -8 -41 -72 -23 -95 -30 -108 -38 -69
-4 17 -14 56 -23 86 -13 47 -19 55 -40 55 -13 0 -24 -3 -24 -7z"/>
<path d="M16557 7263 c-4 -3 -7 -87 -7 -185 l0 -178 25 0 c24 0 25 3 25 62 0
48 3 59 12 50 14 -14 72 -16 98 -2 57 30 53 231 -5 254 -27 10 -80 7 -93 -6
-9 -9 -12 -9 -12 0 0 13 -32 17 -43 5z m127 -55 c10 -13 16 -43 16 -73 0 -59
-21 -95 -55 -95 -32 0 -45 27 -45 92 0 59 20 98 50 98 10 0 26 -10 34 -22z"/>
<path d="M16820 7085 l0 -185 25 0 c24 0 25 3 25 53 l0 53 51 -1 c73 0 92 27
93 129 1 94 -20 129 -78 134 -21 2 -43 -2 -51 -8 -9 -8 -15 -8 -20 0 -3 5 -15
10 -26 10 -18 0 -19 -9 -19 -185z m131 128 c9 -10 14 -40 14 -78 0 -68 -14
-95 -49 -95 -37 0 -46 20 -46 95 0 42 5 76 12 83 17 17 53 15 69 -5z"/>
<path d="M17230 7135 c0 -128 1 -135 20 -135 19 0 20 7 20 135 0 128 -1 135
-20 135 -19 0 -20 -7 -20 -135z"/>
<path d="M17379 7244 c-21 -23 -24 -35 -24 -109 0 -74 3 -86 24 -109 49 -52
161 -21 161 44 0 25 -38 28 -47 3 -13 -36 -51 -44 -77 -17 -11 11 -16 35 -16
79 0 44 5 68 16 79 24 25 53 19 72 -14 21 -37 52 -40 52 -6 0 13 -9 35 -21 50
-17 22 -29 26 -68 26 -38 0 -52 -5 -72 -26z"/>
<path d="M17632 7247 c-30 -32 -29 -57 3 -57 15 0 25 6 25 15 0 24 51 31 67
10 22 -32 15 -43 -31 -50 -52 -8 -82 -32 -91 -74 -6 -30 7 -69 29 -83 18 -12
81 -9 94 4 9 9 12 9 12 0 0 -7 12 -12 26 -12 l26 0 -3 114 c-5 138 -15 156
-89 156 -36 0 -52 -5 -68 -23z m108 -142 c0 -27 -31 -65 -53 -65 -17 0 -37 20
-37 37 0 22 38 53 65 53 20 0 25 -5 25 -25z"/>
<path d="M18040 7135 l0 -135 25 0 25 0 0 135 0 135 -25 0 -25 0 0 -135z"/>
<path d="M18197 7244 c-48 -48 -48 -170 0 -218 28 -28 87 -35 125 -15 42 22
62 127 37 197 -22 64 -113 85 -162 36z m107 -36 c10 -13 16 -43 16 -73 0 -59
-21 -95 -55 -95 -34 0 -55 36 -55 95 0 59 21 95 55 95 13 0 31 -10 39 -22z"/>
<path d="M18440 7135 l0 -135 25 0 c25 0 25 0 25 98 0 83 3 102 18 115 50 45
72 7 72 -124 0 -82 1 -89 20 -89 19 0 20 7 20 113 0 134 -10 157 -69 157 -20
0 -42 -5 -49 -12 -9 -9 -12 -9 -12 0 0 7 -11 12 -25 12 l-25 0 0 -135z"/>
<path d="M18721 7244 c-12 -15 -21 -33 -21 -40 0 -31 25 -63 61 -79 54 -25 76
-50 59 -70 -17 -21 -47 -19 -67 5 -10 11 -28 20 -40 20 -20 0 -21 -3 -12 -27
14 -39 38 -52 91 -53 39 0 50 4 67 26 39 49 22 96 -44 125 -55 24 -72 44 -55
64 18 21 47 19 60 -5 6 -12 21 -20 36 -20 22 0 24 3 19 23 -11 36 -43 57 -90
57 -35 0 -48 -5 -64 -26z"/>
<path d="M6852 5048 l-60 -83 54 -3 c52 -3 54 -4 54 -32 0 -20 5 -30 15 -30
10 0 15 10 15 30 0 20 5 30 15 30 8 0 15 7 15 15 0 8 -7 15 -15 15 -12 0 -15
14 -15 70 0 39 -4 70 -9 70 -5 0 -36 -37 -69 -82z m48 -23 c0 -31 -3 -35 -25
-35 l-25 0 22 35 c13 19 24 35 26 35 1 0 2 -16 2 -35z"/>
<path d="M7010 5010 c0 -6 23 -10 55 -10 l55 0 0 -540 0 -540 -55 0 c-30 0
-55 -4 -55 -10 0 -5 25 -10 55 -10 l55 0 0 -540 0 -540 -55 0 c-30 0 -55 -4
-55 -10 0 -5 25 -10 55 -10 l55 0 0 -540 0 -540 -55 0 c-30 0 -55 -4 -55 -10
0 -5 25 -10 55 -10 l55 0 0 -540 0 -540 -55 0 c-30 0 -55 -4 -55 -10 0 -7 307
-10 900 -10 l899 0 4 -58 3 -57 2 58 2 57 1680 0 1679 0 4 -57 3 -58 2 58 2
57 1680 0 1679 0 4 -57 3 -58 2 58 2 57 1680 0 1679 0 4 -57 3 -58 2 58 2 57
1680 0 1679 0 4 -58 3 -57 2 58 2 57 1680 0 1679 0 4 -57 3 -58 2 58 2 57 840
0 c462 0 840 4 840 8 0 4 -4209 7 -9352 6 -5144 -1 -9692 1 -10105 4 l-753 5
-2 2196 -3 2196 -62 3 c-39 2 -63 -1 -63 -8z"/>
<path d="M6833 4023 c-7 -2 -13 -11 -13 -18 0 -10 12 -13 43 -12 37 2 42 -1
45 -21 3 -18 -3 -26 -27 -35 -38 -14 -40 -35 -5 -39 36 -4 53 -31 34 -53 -11
-13 -24 -16 -57 -11 -33 4 -43 2 -43 -8 0 -29 81 -36 118 -10 26 18 30 65 6
89 -13 12 -14 19 -5 28 19 19 13 75 -8 87 -20 10 -66 12 -88 3z"/>
<path d="M6838 2919 c-10 -5 -18 -17 -18 -24 0 -18 12 -19 27 -4 6 6 21 9 34
7 39 -5 36 -45 -9 -113 -21 -33 -41 -66 -46 -72 -5 -10 9 -13 58 -13 51 0 66
3 66 14 0 10 -13 16 -35 18 l-35 3 31 47 c52 80 38 149 -30 148 -14 0 -34 -5
-43 -11z"/>
<path d="M6903 1811 c-26 -22 -32 -54 -8 -45 13 5 15 -8 15 -80 0 -70 3 -86
15 -86 12 0 15 19 15 115 0 63 -3 115 -7 115 -5 -1 -18 -9 -30 -19z"/>
<path d="M6807 710 c-50 -40 -56 -137 -11 -185 23 -25 71 -33 109 -19 26 10
45 59 45 114 0 44 -5 56 -29 81 -35 35 -77 38 -114 9z m89 -24 c15 -11 19 -26
19 -69 0 -63 -16 -87 -56 -87 -36 0 -59 32 -59 85 0 72 47 107 96 71z"/>
<path d="M8522 343 c3 -114 4 -118 26 -121 22 -3 30 12 12 23 -6 3 -10 52 -10
111 0 87 -3 104 -15 104 -13 0 -15 -17 -13 -117z"/>
<path d="M8280 330 c0 -98 -3 -122 -15 -126 -8 -4 -15 -12 -15 -20 0 -19 46
-18 54 2 3 9 6 72 6 140 0 104 -2 124 -15 124 -13 0 -15 -20 -15 -120z"/>
<path d="M8683 443 c-7 -2 -13 -13 -13 -23 0 -16 4 -17 29 -7 23 8 33 8 45 -2
23 -19 21 -29 -29 -109 -25 -40 -45 -74 -45 -77 0 -3 29 -5 65 -5 51 0 65 3
65 15 0 10 -11 15 -35 15 -19 0 -35 2 -35 5 0 3 12 24 26 46 35 56 42 104 19
129 -17 19 -63 25 -92 13z"/>
<path d="M8865 426 c-46 -46 -42 -156 8 -191 35 -24 89 -19 118 11 20 22 24
36 24 91 0 59 -3 67 -28 89 -38 32 -90 32 -122 0z m98 -24 c26 -28 31 -74 13
-115 -12 -30 -20 -37 -42 -37 -43 0 -64 26 -64 79 0 78 52 119 93 73z"/>
<path d="M9072 438 c-12 -12 -17 -38 -7 -38 3 0 14 6 25 12 15 10 25 10 38 2
30 -19 25 -44 -22 -115 -25 -38 -46 -71 -46 -74 0 -3 29 -5 65 -5 51 0 65 3
65 15 0 10 -11 15 -35 15 -19 0 -35 2 -35 5 0 2 14 26 30 52 34 54 39 102 12
126 -22 20 -73 22 -90 5z"/>
<path d="M9243 443 c-7 -2 -13 -13 -13 -23 0 -16 4 -17 29 -7 23 8 33 8 45 -2
23 -19 21 -29 -29 -109 -25 -40 -45 -74 -45 -77 0 -3 29 -5 65 -5 51 0 65 3
65 15 0 10 -11 15 -35 15 -19 0 -35 2 -35 5 0 3 12 24 26 46 35 56 42 104 19
129 -17 19 -63 25 -92 13z"/>
<path d="M11606 442 c-7 -12 -76 -205 -76 -214 0 -22 32 -4 41 22 10 27 15 30
53 30 37 0 43 -3 53 -30 12 -32 49 -44 39 -12 -55 171 -90 236 -110 204z m44
-119 c0 -7 -11 -13 -25 -13 -28 0 -31 15 -13 56 l12 27 13 -29 c7 -16 12 -35
13 -41z"/>
<path d="M12153 443 c-7 -2 -13 -13 -13 -23 0 -16 4 -17 29 -7 23 8 33 8 45
-2 23 -19 21 -29 -29 -109 -25 -40 -45 -74 -45 -77 0 -3 29 -5 65 -5 51 0 65
3 65 15 0 10 -11 15 -35 15 -19 0 -35 2 -35 5 0 3 12 24 26 46 35 56 42 104
19 129 -17 19 -63 25 -92 13z"/>
<path d="M12335 426 c-46 -46 -42 -156 8 -191 35 -24 89 -19 118 11 20 22 24
36 24 91 0 59 -3 67 -28 89 -38 32 -90 32 -122 0z m98 -24 c26 -28 31 -74 13
-115 -12 -30 -20 -37 -42 -37 -43 0 -64 26 -64 79 0 78 52 119 93 73z"/>
<path d="M12542 438 c-12 -12 -17 -38 -7 -38 3 0 14 6 25 12 15 10 25 10 38 2
30 -19 25 -44 -22 -115 -25 -38 -46 -71 -46 -74 0 -3 29 -5 65 -5 51 0 65 3
65 15 0 10 -11 15 -35 15 -19 0 -35 2 -35 5 0 2 14 26 30 52 34 54 39 102 12
126 -22 20 -73 22 -90 5z"/>
<path d="M12713 443 c-7 -2 -13 -13 -13 -23 0 -16 4 -17 29 -7 23 8 33 8 45
-2 23 -19 21 -29 -29 -109 -25 -40 -45 -74 -45 -77 0 -3 29 -5 65 -5 51 0 65
3 65 15 0 10 -11 15 -35 15 -19 0 -35 2 -35 5 0 3 12 24 26 46 35 56 42 104
19 129 -17 19 -63 25 -92 13z"/>
<path d="M14932 434 c-43 -30 -22 -94 38 -109 38 -9 62 -31 58 -52 -3 -15 -13
-18 -61 -17 -48 1 -57 -1 -55 -15 2 -11 16 -17 47 -19 59 -4 88 4 102 29 20
39 3 67 -59 97 -58 28 -70 47 -40 66 12 7 29 7 58 0 35 -10 40 -9 40 6 0 31
-89 41 -128 14z"/>
<path d="M15528 439 c-10 -5 -18 -17 -18 -24 0 -18 12 -19 27 -4 6 6 21 9 34
7 39 -5 36 -45 -9 -113 -21 -33 -41 -66 -46 -72 -5 -10 9 -13 58 -13 51 0 66
3 66 14 0 10 -13 16 -35 18 l-35 3 31 47 c52 80 38 149 -30 148 -14 0 -34 -5
-43 -11z"/>
<path d="M15709 421 c-25 -25 -29 -37 -29 -84 0 -73 33 -117 89 -117 49 0 78
22 91 71 33 121 -71 210 -151 130z m105 -23 c9 -12 16 -41 16 -63 0 -53 -23
-85 -59 -85 -34 0 -49 15 -57 58 -17 85 57 151 100 90z"/>
<path d="M15918 439 c-10 -5 -18 -17 -18 -24 0 -18 12 -19 27 -4 6 6 21 9 34
7 39 -5 36 -45 -9 -113 -21 -33 -41 -66 -46 -72 -5 -10 9 -13 58 -13 51 0 66
3 66 14 0 10 -13 16 -35 18 l-35 3 31 47 c52 80 38 149 -30 148 -14 0 -34 -5
-43 -11z"/>
<path d="M16082 438 c-12 -12 -17 -38 -7 -38 3 0 14 6 25 12 15 10 25 10 38 2
30 -19 25 -44 -22 -115 -25 -38 -46 -71 -46 -74 0 -3 29 -5 65 -5 51 0 65 3
65 15 0 10 -11 15 -35 15 -19 0 -35 2 -35 5 0 2 14 26 30 52 34 54 39 102 12
126 -22 20 -73 22 -90 5z"/>
<path d="M18330 423 c-57 -51 -50 -157 11 -188 33 -17 92 -19 120 -5 28 15 49
63 49 111 0 33 -6 47 -34 75 -45 45 -101 47 -146 7z m120 -23 c29 -29 35 -67
17 -106 -29 -59 -107 -59 -132 0 -35 83 55 166 115 106z"/>
<path d="M18883 443 c-7 -2 -13 -13 -13 -23 0 -16 4 -17 29 -7 23 8 33 8 45
-2 23 -19 21 -29 -29 -109 -25 -40 -45 -74 -45 -77 0 -3 29 -5 65 -5 51 0 65
3 65 15 0 10 -11 15 -35 15 -19 0 -35 2 -35 5 0 3 12 24 26 46 35 56 42 104
19 129 -17 19 -63 25 -92 13z"/>
<path d="M19065 426 c-46 -46 -42 -156 8 -191 35 -24 89 -19 118 11 20 22 24
36 24 91 0 59 -3 67 -28 89 -38 32 -90 32 -122 0z m98 -24 c26 -28 31 -74 13
-115 -12 -30 -20 -37 -42 -37 -43 0 -64 26 -64 79 0 78 52 119 93 73z"/>
<path d="M19273 443 c-7 -2 -13 -13 -13 -23 0 -16 4 -17 29 -7 23 8 33 8 45
-2 23 -19 21 -29 -29 -109 -25 -40 -45 -74 -45 -77 0 -3 29 -5 65 -5 51 0 65
3 65 15 0 10 -11 15 -35 15 -19 0 -35 2 -35 5 0 3 12 24 26 46 35 56 42 104
19 129 -17 19 -63 25 -92 13z"/>
<path d="M19435 437 c-26 -20 -11 -39 20 -25 67 30 72 -27 10 -123 l-45 -69
70 0 c56 0 70 3 70 15 0 11 -11 15 -40 15 l-39 0 31 51 c34 54 41 106 19 133
-16 20 -70 21 -96 3z"/>
<path d="M21647 443 c-4 -3 -7 -55 -7 -115 0 -101 1 -108 20 -108 17 0 19 8
22 82 l3 82 54 -82 c29 -45 60 -82 67 -82 11 0 14 24 14 115 0 94 -3 115 -15
115 -11 0 -15 -18 -17 -82 l-3 -82 -54 82 c-50 76 -68 92 -84 75z"/>
<path d="M22278 439 c-10 -5 -18 -17 -18 -24 0 -18 12 -19 27 -4 6 6 21 9 34
7 39 -5 36 -45 -9 -113 -21 -33 -41 -66 -46 -72 -5 -10 9 -13 58 -13 51 0 66
3 66 14 0 10 -13 16 -35 18 l-35 3 31 47 c52 80 38 149 -30 148 -14 0 -34 -5
-43 -11z"/>
<path d="M22459 421 c-25 -25 -29 -37 -29 -84 0 -73 33 -117 89 -117 49 0 78
22 91 71 33 121 -71 210 -151 130z m105 -23 c9 -12 16 -41 16 -63 0 -53 -23
-85 -59 -85 -34 0 -49 15 -57 58 -17 85 57 151 100 90z"/>
<path d="M22665 437 c-26 -20 -11 -39 20 -25 67 30 72 -27 10 -123 l-45 -69
70 0 c56 0 70 3 70 15 0 11 -11 15 -40 15 l-39 0 31 51 c34 54 41 106 19 133
-16 20 -70 21 -96 3z"/>
<path d="M22838 439 c-10 -5 -18 -17 -18 -24 0 -18 12 -19 27 -4 6 6 21 9 34
7 39 -5 36 -45 -9 -113 -21 -33 -41 -66 -46 -72 -5 -10 9 -13 58 -13 51 0 66
3 66 14 0 10 -13 16 -35 18 l-35 3 31 47 c52 80 38 149 -30 148 -14 0 -34 -5
-43 -11z"/>
<path d="M25079 435 c-36 -19 -53 -65 -46 -122 7 -60 41 -93 97 -93 55 0 86
17 106 58 51 107 -55 213 -157 157z m105 -36 c34 -27 37 -98 6 -129 -64 -64
-159 25 -116 108 24 47 66 55 110 21z"/>
<path d="M25615 437 c-26 -20 -11 -39 20 -25 67 30 72 -27 10 -123 l-45 -69
70 0 c56 0 70 3 70 15 0 11 -11 15 -40 15 l-39 0 31 51 c34 54 41 106 19 133
-16 20 -70 21 -96 3z"/>
<path d="M25814 435 c-53 -36 -58 -150 -9 -192 31 -27 80 -30 112 -8 50 35 54
145 8 191 -28 28 -79 32 -111 9z m88 -32 c24 -22 25 -109 1 -135 -17 -19 -49
-23 -70 -10 -20 12 -34 64 -27 96 13 61 57 84 96 49z"/>
<path d="M26005 437 c-26 -20 -11 -39 20 -25 67 30 72 -27 10 -123 l-45 -69
70 0 c56 0 70 3 70 15 0 11 -11 15 -40 15 l-39 0 31 51 c34 54 41 106 19 133
-16 20 -70 21 -96 3z"/>
<path d="M26183 443 c-7 -2 -13 -14 -13 -25 0 -17 3 -18 14 -8 8 6 25 10 38 8
32 -4 32 -49 1 -63 -29 -12 -30 -33 -2 -37 27 -4 44 -30 35 -53 -5 -14 -15
-17 -52 -12 -38 4 -45 2 -42 -12 5 -26 87 -27 116 -1 26 24 28 47 7 76 -11 17
-12 27 -3 52 17 43 -10 82 -55 81 -17 0 -38 -3 -44 -6z"/>
<path d="M18700 400 c0 -11 -7 -20 -15 -20 -19 0 -20 -16 0 -23 10 -4 15 -25
17 -69 l3 -63 33 -3 c35 -4 44 12 12 21 -17 4 -20 14 -20 61 0 49 2 56 20 56
11 0 20 5 20 10 0 6 -9 10 -20 10 -13 0 -20 7 -20 20 0 11 -7 20 -15 20 -8 0
-15 -9 -15 -20z"/>
<path d="M25440 400 c0 -11 -7 -20 -15 -20 -19 0 -20 -16 0 -23 10 -4 15 -25
17 -69 l3 -63 33 -3 c35 -4 44 12 12 21 -17 4 -20 14 -20 61 0 49 2 56 20 56
11 0 20 5 20 10 0 6 -9 10 -20 10 -13 0 -20 7 -20 20 0 11 -7 20 -15 20 -8 0
-15 -9 -15 -20z"/>
<path d="M8350 317 c0 -79 15 -97 83 -95 l47 1 0 78 c0 62 -3 79 -15 79 -10 0
-15 -16 -17 -62 -3 -58 -5 -63 -27 -66 -31 -5 -41 12 -41 76 0 39 -4 52 -15
52 -12 0 -15 -14 -15 -63z"/>
<path d="M11740 319 c0 -88 9 -99 75 -98 l55 2 0 78 c0 64 -3 79 -15 79 -11 0
-15 -13 -15 -52 0 -64 -10 -81 -41 -76 -22 3 -24 8 -27 66 -2 46 -7 62 -17 62
-12 0 -15 -14 -15 -61z"/>
<path d="M11916 362 c-17 -20 -22 -67 -7 -76 10 -6 8 -63 -3 -73 -3 -3 -6 -16
-6 -28 0 -31 50 -51 97 -39 72 18 69 71 -5 89 -52 13 -64 25 -24 25 39 0 67
37 58 75 -4 14 -2 25 4 25 5 0 10 4 10 9 0 4 -24 9 -54 10 -40 1 -57 -4 -70
-17z m72 -14 c17 -17 15 -43 -4 -59 -31 -26 -70 25 -44 56 15 18 32 19 48 3z
m19 -151 c20 -15 5 -27 -32 -27 -36 0 -50 12 -41 36 6 15 49 11 73 -9z"/>
<path d="M15110 360 c-29 -29 -27 -90 3 -118 23 -22 68 -29 101 -16 27 10 7
24 -34 24 -29 0 -42 5 -50 19 -15 30 -14 31 45 31 51 0 55 2 55 23 0 53 -80
77 -120 37z m88 -27 c2 -9 -8 -13 -32 -13 -34 0 -44 8 -29 24 11 11 56 2 61
-11z"/>
<path d="M15260 260 c0 -100 3 -120 15 -120 11 0 15 12 15 45 0 43 1 45 25 39
57 -14 95 20 95 85 0 54 -73 94 -108 59 -9 -9 -12 -9 -12 0 0 7 -7 12 -15 12
-12 0 -15 -20 -15 -120z m108 78 c7 -7 12 -24 12 -38 0 -52 -61 -71 -82 -25
-23 51 32 101 70 63z"/>
<path d="M18561 363 c-12 -10 -24 -35 -27 -55 -5 -31 -2 -41 20 -63 21 -20 34
-26 63 -23 53 4 56 28 4 28 -35 0 -43 4 -51 25 -6 16 -6 34 0 50 8 21 16 25
50 25 29 0 40 4 40 15 0 22 -72 20 -99 -2z"/>
<path d="M21871 354 c-43 -54 -11 -134 54 -134 50 0 80 29 80 80 0 32 -6 47
-24 61 -35 28 -85 25 -110 -7z m94 -54 c0 -43 -1 -45 -32 -48 -27 -3 -35 1
-45 22 -8 20 -8 32 0 52 10 21 18 25 45 22 31 -3 32 -5 32 -48z"/>
<path d="M22022 369 c3 -8 16 -45 29 -82 32 -92 51 -89 90 13 16 41 29 76 29
77 0 2 -8 3 -18 3 -13 0 -23 -15 -36 -56 -10 -31 -21 -53 -24 -49 -4 3 -14 27
-23 53 -10 29 -23 48 -34 51 -12 2 -16 -2 -13 -10z"/>
<path d="M25290 360 c-13 -13 -20 -33 -20 -60 0 -53 27 -80 80 -80 29 0 40 4
40 15 0 10 -10 15 -33 15 -40 0 -57 15 -57 50 0 35 17 50 57 50 23 0 33 5 33
15 0 24 -75 20 -100 -5z"/>
</g>
</svg>
